<svg id="Layer_1" data-name="Layer 1" xmlns="http://www.w3.org/2000/svg" viewBox="0 0 1417.32 1417.32"><defs><style>.cls-1{fill:#fff;}.cls-2{fill:#0b0b0a;}.cls-3{fill:#4da167;}</style></defs><circle class="cls-1" cx="708.66" cy="708.66" r="708.66"/><path id="Head" class="cls-2" d="M1032.05,643.72s30.8-153.1-149.91-214.3c0,0-168.92-68.85-285.51,46.25,0,0-51.49,45.24-48.61,127.18,0,0-74-45.65-155.93-42.76l1.1,31.32s-48.62-10.35-130.39-2.64l29.82,93.05s105.53-18.19,130.14-4.58l8.36-36.49s77.12-2.72,133.82,31.48l-160.1,44.25,6.23,108.36,132-89.1-13.9,84.94S634.87,944.84,892.7,1003.32c0,0,107.26-71.34,147.79-205.47,0,0,7.24-51.45-40.24-97.78l-8.7,27.11L745.83,738.25s53.56-55,67.54-137.5L984,650.23Z"/><path class="cls-3" d="M256.93,893.12l32.76-16.38-11.8-22.27-31.44,16.38-81.9-156.53L388,268.87H277L48,712.31l101.28,198-34.46,16.23,8.51,19,33.41-15.72,97.81,197.32a38.36,38.36,0,0,0,49.62,18.15l27.67-12a38.35,38.35,0,0,0,19-52.34ZM89.21,712.31,298.86,304.8l34.06,2.62L122.62,712.31l89.1,174.26-27.51,13.11ZM218,945.53l42.9,5.25-18.34,30.14-45.21-6.56ZM270,1044.46l-36-6.55,19.66-26.32,38,5.36Z"/><path class="cls-3" d="M1369.37,712.31,1140.28,268.87H1029.36l223.41,445.45-81.89,156.53-31.45-16.38-11.8,22.27,32.76,16.38L1066.48,1081a38.36,38.36,0,0,0,19,52.34l27.68,12a38.35,38.35,0,0,0,49.61-18.15l97.81-197.32,33.42,15.72,8.51-19-34.47-16.23Zm-222.08,332.15L1125.67,1017l38-5.36,19.66,26.32Zm27.52-63.54-18.34-30.14,42.9-5.25L1220,974.36Zm58.3-81.24-27.51-13.11,89.1-174.26L1084.4,307.42l34.07-2.62,209.64,407.51Z"/></svg>